<?xml version="1.0" encoding="UTF-8"?>
<!DOCTYPE svg PUBLIC "-//W3C//DTD SVG 1.1//EN" "http://www.w3.org/Graphics/SVG/1.1/DTD/svg11.dtd">
<!-- Creator: CorelDRAW X7 -->
<svg xmlns="http://www.w3.org/2000/svg" xml:space="preserve" version="1.1" style="shape-rendering:geometricPrecision; text-rendering:geometricPrecision; image-rendering:optimizeQuality; fill-rule:evenodd; clip-rule:evenodd"
viewBox="0 0 3000 2500"
 xmlns:xlink="http://www.w3.org/1999/xlink">
 <defs>
  <style type="text/css">
   <![CDATA[
    .fil2 {fill:none}
    .fil0 {fill:#575757}
    .fil1 {fill:#1F1B20;fill-rule:nonzero}
   ]]>
  </style>
 </defs>
 <g id="Слой_x0020_1">
  <metadata id="CorelCorpID_0Corel-Layer"/>
  <g id="_862635585824">
   <polygon class="fil0" points="310,2251 310,2123 526,2123 526,2251 555,2251 555,1967 526,1967 526,2095 310,2095 310,1967 282,1967 282,2251 "/>
   <polygon class="fil0" points="1415,2251 1415,2123 1487,2123 1606,2255 1637,2251 1638,2249 1512,2109 1639,1968 1638,1967 1602,1967 1486,2095 1415,2095 1415,1967 1386,1967 1386,2251 "/>
   <g>
    <g>
     <g>
      <path class="fil1" d="M177 714c0,-179 -7,-373 2,-551 9,-118 15,268 15,273 -1,302 -1,605 -1,907 -1,197 -2,394 -2,590 0,54 -2,-40 -2,-47 0,71 0,142 0,213l-1 -161 0 -178c-1,40 0,84 -2,124 -1,41 -2,83 -2,125 -1,-100 -1,-201 -2,-301 0,55 1,111 0,166 -1,13 -2,26 -2,40 1,154 2,309 2,463 -1,-131 -1,-265 -4,-396 -1,2 1,210 1,235 0,-39 -1,-77 -2,-116 0,23 0,46 -1,69 1,-305 1,-610 1,-915 0,-180 0,-360 0,-540zm11 1224l-1 -44c0,75 1,150 1,225l0 -181zm-4 71c0,58 0,116 1,173 -1,-58 -1,-115 -1,-173zm1 173c0,21 0,41 0,62l0 -62z"/>
      <path class="fil1" d="M147 872c0,-221 0,-444 7,-664 9,-236 17,266 17,267 3,273 2,546 0,819 -2,228 -5,456 -6,684 0,53 -1,-40 -2,-47 1,94 1,188 1,282 -1,-91 -2,-183 -2,-275 0,109 0,218 0,328l-1 -365c0,9 0,19 -1,28 -4,133 -1,273 -1,406 0,-125 -1,-250 -2,-375 0,-46 0,-92 0,-138 0,28 -1,57 -1,85 -1,27 0,54 0,81 0,145 0,289 1,434 -1,-174 -1,-349 -4,-523 -2,33 -3,69 -3,106 -1,-256 -1,-512 -2,-769 0,-121 -1,-242 -1,-364zm3 1133c0,22 0,45 0,68l0 -68zm0 68c0,32 1,65 1,97l-1 98c0,-65 0,-130 0,-195zm1 97c0,24 1,48 1,71l-1 -97 0 26zm1 71c0,21 1,42 1,62l-1 -62z"/>
     </g>
    </g>
   </g>
   <line class="fil2" x1="170" y1="139" x2="170" y2= "2422" />
   <g>
    <g>
     <g>
      <path class="fil1" d="M677 714c0,-179 -7,-373 3,-551 9,-118 14,268 14,273 -1,302 0,605 0,907 -1,197 -2,394 -3,590 0,54 -1,-40 -2,-47 1,71 0,142 0,213l-1 -161 0 -178c0,40 1,84 -2,124 -1,41 -2,83 -2,125 0,-100 -1,-201 -1,-301 0,55 0,111 -1,166 0,13 -1,26 -1,40 0,154 1,309 2,463 -1,-131 -1,-265 -4,-396 -1,2 0,210 1,235 -1,-39 -2,-77 -3,-116 0,23 0,46 0,69 0,-305 1,-610 0,-915 0,-180 0,-360 0,-540zm11 1224l0 -44c0,75 0,150 0,225l0 -181zm-4 71c0,58 1,116 1,173 0,-58 0,-115 -1,-173zm1 173c0,21 0,41 0,62l0 -62z"/>
      <path class="fil1" d="M647 872c1,-221 1,-444 7,-664 10,-236 17,266 17,267 4,273 2,546 1,819 -2,228 -5,456 -6,684 0,53 -2,-40 -2,-47 0,94 0,188 0,282 0,-91 -1,-183 -2,-275 0,109 0,218 0,328l0 -365c-1,9 -1,19 -1,28 -4,133 -1,273 -1,406 -1,-125 -2,-250 -2,-375 0,-46 0,-92 0,-138 -1,28 -1,57 -2,85 0,27 0,54 0,81 0,145 1,289 1,434 -1,-174 -1,-349 -4,-523 -2,33 -3,69 -3,106 0,-256 0,-512 -1,-769 -1,-121 -1,-242 -2,-364zm3 1133c0,22 0,45 0,68l0 -68zm0 68c1,32 1,65 2,97l-1 98c-1,-65 -1,-130 -1,-195zm2 97c0,24 0,48 1,71l-1 -97 0 26zm1 71c0,21 0,42 0,62l0 -62z"/>
     </g>
    </g>
   </g>
   <line class="fil2" x1="671" y1="139" x2="671" y2= "2422" />
   <g>
    <g>
     <g>
      <path class="fil1" d="M1256 714c0,-179 -7,-373 2,-551 9,-118 15,268 15,273 -1,302 0,605 0,907 -1,197 -3,394 -3,590 0,54 -2,-40 -2,-47 1,71 0,142 0,213l-1 -161 0 -178c0,40 0,84 -2,124 -1,41 -2,83 -2,125 0,-100 -1,-201 -1,-301 0,55 0,111 -1,166 0,13 -1,26 -1,40 0,154 1,309 1,463 -1,-131 0,-265 -3,-396 -1,2 0,210 0,235 0,-39 -1,-77 -2,-116 0,23 0,46 0,69 0,-305 1,-610 0,-915 0,-180 0,-360 0,-540zm11 1224l0 -44c0,75 0,150 0,225l0 -181zm-4 71c0,58 1,116 1,173 0,-58 -1,-115 -1,-173zm1 173c0,21 0,41 0,62l0 -62z"/>
      <path class="fil1" d="M1226 872c0,-221 0,-444 7,-664 10,-236 17,266 17,267 4,273 2,546 1,819 -3,228 -6,456 -7,684 0,53 -1,-40 -1,-47 0,94 0,188 0,282 -1,-91 -1,-183 -2,-275 0,109 0,218 0,328l-1 -365c0,9 0,19 -1,28 -3,133 -1,273 0,406 -1,-125 -2,-250 -3,-375 0,-46 1,-92 1,-138 -1,28 -1,57 -2,85 -1,27 0,54 0,81 0,145 1,289 1,434 -1,-174 -1,-349 -4,-523 -2,33 -3,69 -3,106 0,-256 -1,-512 -1,-769 -1,-121 -1,-242 -2,-364zm3 1133c0,22 0,45 0,68l0 -68zm0 68c0,32 1,65 1,97l-1 98c0,-65 0,-130 0,-195zm1 97c1,24 1,48 1,71l0 -97 -1 26zm1 71c1,21 1,42 1,62l-1 -62z"/>
     </g>
    </g>
   </g>
   <line class="fil2" x1="1250" y1="139" x2="1250" y2= "2422" />
   <g>
    <g>
     <g>
      <path class="fil1" d="M1757 714c0,-179 -7,-373 2,-551 9,-118 14,268 14,273 -1,302 0,605 0,907 -1,197 -2,394 -2,590 -1,54 -2,-40 -2,-47 0,71 0,142 0,213l-2 -161 0 -178c0,40 1,84 -1,124 -2,41 -2,83 -2,125 -1,-100 -1,-201 -2,-301 0,55 0,111 -1,166 0,13 -1,26 -1,40 1,154 1,309 2,463 -1,-131 -1,-265 -4,-396 -1,2 1,210 1,235 -1,-39 -2,-77 -2,-116 -1,23 -1,46 -1,69 1,-305 1,-610 1,-915 -1,-180 -1,-360 0,-540zm10 1224l0 -44c0,75 0,150 0,225l0 -181zm-3 71c-1,58 0,116 0,173 0,-58 0,-115 0,-173zm0 173c1,21 1,41 1,62l-1 -62z"/>
      <path class="fil1" d="M1727 872c0,-221 0,-444 6,-664 10,-236 17,266 18,267 3,273 1,546 0,819 -2,228 -5,456 -6,684 0,53 -2,-40 -2,-47 0,94 0,188 1,282 -1,-91 -2,-183 -3,-275 0,109 0,218 0,328l0 -365c0,9 -1,19 -1,28 -4,133 -1,273 -1,406 -1,-125 -1,-250 -2,-375 0,-46 0,-92 0,-138 0,28 -1,57 -2,85 0,27 0,54 0,81 1,145 1,289 1,434 -1,-174 0,-349 -4,-523 -1,33 -2,69 -3,106 0,-256 0,-512 -1,-769 0,-121 -1,-242 -1,-364zm2 1133c0,22 0,45 1,68l-1 -68zm1 68c0,32 0,65 1,97l-1 98c0,-65 0,-130 0,-195zm1 97c0,24 1,48 1,71l-1 -97 0 26zm1 71c0,21 0,42 0,62l0 -62z"/>
     </g>
    </g>
   </g>
   <line class="fil2" x1="1750" y1="139" x2="1750" y2= "2422" />
   <g>
    <g>
     <g>
      <path class="fil1" d="M568 964c-120,0 -262,6 -381,-3 -81,-9 188,-14 189,-14 209,1 419,0 628,0 136,1 272,2 408,3 37,0 -27,1 -33,2 50,-1 99,0 148,0l-112 1 -123 0c27,0 59,0 86,2 29,1 59,2 90,2 -71,0 -141,1 -212,1 38,0 77,0 115,1 9,0 18,1 28,1 106,0 213,-1 320,-2 -91,1 -184,1 -274,4 1,1 146,0 163,-1 -27,1 -54,2 -81,3 16,0 32,0 48,0 -211,0 -422,-1 -633,0 -124,0 -249,0 -374,0zm847 -11l-30 0c52,0 104,0 156,0l-126 0zm53 4c38,0 77,-1 115,-1 -39,0 -77,0 -115,1zm115 -1c14,0 29,0 44,0l-44 0z"/>
      <path class="fil1" d="M678 993c-152,0 -308,0 -460,-6 -162,-10 182,-17 185,-17 188,-4 378,-2 567,-1 157,2 315,5 473,6 37,0 -28,2 -33,2 65,0 131,0 196,0 -64,0 -127,1 -191,2 76,0 151,0 227,0l-253 0c7,1 14,1 20,1 90,4 190,1 281,1 -86,1 -173,2 -259,2 -32,0 -64,0 -96,0 20,1 39,1 59,2 19,0 37,0 56,0 100,0 200,-1 300,-1 -120,1 -242,1 -362,4 49,4 119,3 184,1l72 1c-238,1 -476,1 -714,2 -84,1 -168,1 -252,1zm894 -4c16,0 32,0 48,-1l-62 1 14 0zm48 -1c17,0 33,0 48,0l-48 0z"/>
     </g>
    </g>
   </g>
   <line class="fil2" x1="170" y1="970" x2="1750" y2= "970" />
   <g>
    <g>
     <g>
      <path class="fil1" d="M568 1464c-120,0 -262,7 -381,-2 -81,-9 188,-15 189,-15 209,1 419,1 628,1 136,1 272,2 408,2 37,0 -27,2 -33,2 50,0 99,0 148,0l-112 1 -123 0c27,1 59,0 86,2 29,2 59,2 90,2 -71,1 -141,1 -212,2 38,0 77,-1 115,0 9,1 18,2 28,2 106,-1 213,-2 320,-2 -91,1 -184,1 -274,4 1,1 146,-1 163,-1 -27,0 -54,1 -81,2 16,0 32,0 48,1 -211,-1 -422,-1 -633,-1 -124,0 -249,0 -374,0zm847 -11l-30 1c52,0 104,-1 156,-1l-126 0zm53 4c38,0 77,0 115,-1 -39,1 -77,1 -115,1zm115 -1c14,0 29,0 44,0l-44 0z"/>
      <path class="fil1" d="M678 1494c-152,0 -308,0 -460,-7 -162,-9 182,-17 185,-17 188,-3 378,-2 567,0 157,2 315,5 473,6 37,0 -28,1 -33,2 65,-1 131,-1 196,-1 -64,1 -127,2 -191,2 76,0 151,0 227,0l-253 1c7,0 14,0 20,1 90,4 190,1 281,1 -86,0 -173,1 -259,2 -32,0 -64,0 -96,0 20,0 39,1 59,1 19,1 37,0 56,0 100,0 200,0 300,-1 -120,1 -242,1 -362,4 49,4 119,3 184,2l72 1c-238,0 -476,1 -714,2 -84,0 -168,0 -252,1zm894 -4c16,-1 32,-1 48,-1l-62 1 14 0zm48 -1c17,0 33,-1 48,-1l-48 1z"/>
     </g>
    </g>
   </g>
   <line class="fil2" x1="170" y1="1471" x2="1750" y2= "1471" />
   <g>
    <g>
     <g>
      <path class="fil1" d="M2329 1162c0,398 8,803 -1,1201 -7,223 -15,-576 -15,-595 1,-518 -1,-1036 -2,-1555 -52,78 -105,156 -157,234 -175,258 -350,516 -524,774 25,42 121,199 169,279 61,99 -47,-74 -55,-87 81,132 161,265 242,397l-186 -302c-57,-95 -115,-189 -172,-284l-1 1c38,61 76,123 112,186 52,88 105,176 159,264 -91,-149 -182,-297 -273,-446l-1 0c21,34 73,119 100,165 15,25 29,50 44,75 176,287 352,575 528,862 -151,-245 -301,-492 -454,-736 1,3 4,7 6,13 -77,-127 -154,-255 -232,-382l3 -5 3 4c0,0 0,-1 0,-1l-2 -3 2 -4 0 0 -3 3 -3 -5c52,-77 467,-693 633,-939 21,-30 41,-61 62,-92l0 -40c0,5 1,8 4,12 3,4 6,6 10,8l2 -4 0 4c5,1 8,1 12,0 5,-2 8,-4 11,-8l-23 33c1,324 1,649 2,973zm-705 67l0 -1 -2 -3 3 -4 1 1 0 0 -1 -1 1 -1 0 0 -1 1 -2 -5 2 -3 0 0 -3 3 -2 -4c0,1 1,1 1,2l1 2 0 1 0 0 1 -1 2 5 -3 4 0 -1c0,1 0,1 0,1l0 1 -1 2c-1,0 -1,1 -1,1l2 -3 2 3zm1 -17l0 1 75 -113c-25,38 -50,75 -75,112zm3 5l0 0 13 -20 -13 20zm172 291l-49 -80c85,140 171,280 256,420l-207 -340zm-175 -287l0 0 0 0 0 0 0 0zm-2 -5l-1 0 0 0 1 0 0 0zm-1 10l0 -1 0 0 0 1 0 0zm276 449c55,91 111,183 167,274 -56,-92 -111,-183 -167,-274zm167 274c27,44 54,88 81,132 -27,-44 -54,-88 -81,-132zm-445 -728l-1 -1 0 1 0 0 1 0zm-4 -6l0 0 0 0 0 0zm0 0c1,1 1,2 1,3l2 3 -2 3c0,0 0,1 -1,2l0 0 -1 0c1,0 1,0 1,0l-3 -5 3 -5c0,-1 0,-1 0,-1l0 1 0 -1zm0 11l0 0 0 0 0 0zm232 382c24,46 101,168 166,272l-166 -272zm166 272l6 9 34 57 -40 -66zm6 9c35,56 66,106 84,134 -43,-69 -85,-137 -128,-206l44 72zm84 134c2,4 4,7 6,10l-6 -10zm-491 -802l-2 -3c0,1 1,2 1,3 0,1 -1,1 -1,2l2 -2zm714 -1061l9 -14c0,1 -1,2 -2,2 -1,1 -2,1 -3,0 -1,0 -2,-1 -3,-1 0,-1 -1,-2 -1,-3l0 16z"/>
      <g>
       <path class="fil1" d="M2358 816c1,483 3,967 -4,1450 -9,469 -18,-563 -18,-584 -5,-513 -3,-1026 -4,-1538 0,0 0,0 0,0 0,-1 0,-1 0,-1 0,0 0,0 0,0 0,0 0,1 0,1 -45,67 -91,134 -136,201 -198,291 -396,582 -594,872 0,1 0,2 0,3 0,1 0,2 0,3 0,0 199,329 226,373 60,100 -47,-73 -55,-87 107,176 214,351 321,527 -105,-171 -210,-341 -314,-512 124,203 247,406 371,610l-413 -677c10,17 20,33 30,50 149,253 307,506 460,758 -142,-233 -285,-465 -427,-698 -53,-86 -105,-172 -157,-258 32,54 64,107 96,161 30,50 61,100 91,150 164,268 328,536 491,804 2,3 4,5 8,7 3,1 6,1 10,0 3,-1 5,-2 8,-5 1,-2 2,-3 2,-5 0,2 -1,3 -2,5 -3,3 -5,4 -8,5 -4,1 -7,1 -10,0 -4,-2 -6,-4 -8,-7 -4,-2 -530,-868 -595,-969 33,57 66,113 100,170l-239 -393c-3,-4 -4,-7 -4,-12 0,-5 2,-8 4,-12 220,-327 439,-653 659,-980 22,-32 44,-65 65,-98 4,-4 7,-7 12,-9 6,-2 10,-2 15,0 5,2 9,4 12,8 4,5 5,9 5,15 1,224 1,448 2,672zm-7 1600l0 1 0 0 0 0 0 0 0 0 0 1 0 0c0,0 0,1 0,1l0 0 0 0c-1,1 -1,1 -1,1l0 0 0 0 0 1 0 0 0 0 0 -1c0,0 0,0 1,-1l0 0c0,0 0,-1 0,-1l0 -2 0 0zm-524 -791c42,69 84,138 127,207l-127 -207zm127 207c28,46 56,92 85,138l105 175c-63,-104 -127,-208 -190,-313zm85 138c27,43 54,87 80,130l-114 -187 34 57zm80 130c23,36 45,72 67,108l-67 -108z"/>
      </g>
     </g>
    </g>
   </g>
   <polygon class="fil2" points="2337,2422 2334,139 1605,1220 "/>
   <g id="_862635589440">
    <g>
     <g>
      <path class="fil1" d="M2826 1162c1,398 9,803 0,1201 -8,223 -15,-576 -16,-595 2,-518 0,-1036 -1,-1555 -53,78 -105,156 -158,234 -174,258 -349,516 -523,774 25,42 120,199 169,279 60,99 -47,-74 -55,-87 81,132 161,265 242,397l-186 -303c-58,-94 -115,-188 -173,-283l0 1c37,61 76,123 112,186 51,87 104,175 158,263 -91,-148 -182,-297 -273,-445l0 0c20,34 72,119 100,165 15,25 29,50 44,75 175,287 351,575 527,862 -150,-245 -301,-492 -453,-736 1,3 3,7 6,13l-232 -382 3 -5 2 4c0,0 1,-1 1,-1l-3 -3 3 -4c0,0 0,0 0,0l-3 3 -3 -5c52,-77 467,-693 633,-939 20,-30 41,-61 62,-92l0 -40c0,5 1,8 4,12 3,4 5,6 9,8l3 -4 0 4c4,1 8,1 12,0 5,-2 8,-4 11,-8l-23 33c1,324 1,649 1,973zm-704 67l0 -1 -2 -3 3 -4 1 1 0 0 -1 -1 1 -1 0 0 -1 1 -3 -5 2 -3 0 0 -2 3 -2 -4c0,1 0,1 1,2l1 2 0 1c0,0 0,0 0,0l0 -1 3 5 -3 4 0 -1c0,1 0,1 -1,1l1 1 -2 2c0,0 0,1 -1,1l3 -3 2 3zm0 -17l1 1 75 -113c-25,38 -50,75 -76,112zm3 5l0 0 14 -20 -14 20zm173 290l-49 -79c85,140 171,280 256,420l-207 -341zm-175 -286l0 0 0 0 0 0 0 0zm-3 -5l0 0 0 0 0 0 0 0zm0 10l0 -1 0 0 0 1 0 0zm275 448c57,94 114,187 172,281 -58,-94 -115,-187 -172,-281zm172 281c26,42 51,84 77,126 -26,-42 -52,-84 -77,-126zm-450 -734l0 -1 0 1 0 0 0 0zm-3 -6l0 0 0 0 0 0zm0 0c0,1 1,2 1,3l2 3 -2 3c0,0 -1,1 -1,2l-1 0 0 0c0,0 0,0 0,0l-3 -5 4 -5c0,-1 -1,-1 -1,-1l1 1 0 -1zm0 11l0 0 0 0 0 0zm232 382c24,46 101,169 167,273 -56,-91 -111,-182 -167,-273zm167 273l5 9 34 56 -39 -65zm5 9c35,55 66,105 84,133 -43,-69 -86,-137 -128,-206l44 73zm84 133c2,4 4,7 6,10l-6 -10zm-492 -802l-1 -3c0,1 0,2 0,3 0,1 0,1 0,2l1 -2zm715 -1061l9 -14c-1,1 -1,2 -2,2 -1,1 -2,1 -3,0 -2,0 -2,-1 -3,-1 -1,-1 -1,-2 -1,-3l0 16z"/>
      <g>
       <path class="fil1" d="M2856 816c1,483 2,967 -5,1450 -8,469 -18,-563 -18,-584 -5,-513 -3,-1026 -3,-1538 0,0 0,0 0,0 0,-1 0,-1 0,-1 0,0 0,0 0,0 0,0 0,1 0,1 -46,67 -91,134 -137,201 -197,291 -395,582 -593,872 0,1 -1,2 -1,3 0,1 1,2 1,3 0,0 199,329 225,373 61,100 -46,-73 -54,-87 107,176 214,351 321,527 -105,-171 -210,-341 -315,-512 124,203 248,406 372,610l-413 -677c10,17 20,33 29,50 150,253 308,506 461,758 -142,-233 -285,-465 -427,-698 -53,-86 -105,-172 -158,-258 32,54 65,107 96,161 30,50 62,100 92,150 163,268 327,536 491,804 2,3 4,5 8,7 3,1 6,1 9,0 4,-1 6,-2 8,-5 1,-2 2,-3 3,-5 -1,2 -2,3 -3,5 -2,3 -4,4 -8,5 -3,1 -6,1 -9,0 -4,-2 -6,-4 -8,-7 -5,-2 -531,-868 -595,-969 33,58 67,115 102,173 -81,-132 -161,-264 -242,-396 -2,-4 -3,-7 -3,-12 0,-5 1,-8 4,-12 219,-327 439,-653 658,-980 22,-32 44,-65 66,-98 3,-4 7,-7 12,-9 5,-2 10,-2 15,0 5,2 9,4 12,8 3,5 5,9 5,15 0,224 1,448 2,672zm-7 1600l0 1 -1 0 0 0 0 0 0 0 0 1 0 0c0,0 0,1 0,1l0 0 0 0c0,1 0,1 0,1l0 0 0 0 0 1 0 0 0 0 0 -1c0,0 0,0 0,-1l0 0c0,0 0,-1 0,-1l1 -2 0 0zm-522 -788c40,66 80,133 121,199l-121 -199zm121 199c30,48 59,95 88,142l106 176 -194 -318zm88 142c27,43 54,86 80,129l-113 -185 33 56zm80 129c23,37 45,74 68,110l-68 -110z"/>
      </g>
     </g>
    </g>
   </g>
   <polygon class="fil2" points="2835,2422 2832,139 2103,1220 "/>
  </g>
 </g>
</svg>
