<?xml version="1.0" encoding="UTF-8"?>
<!DOCTYPE svg PUBLIC "-//W3C//DTD SVG 1.1//EN" "http://www.w3.org/Graphics/SVG/1.1/DTD/svg11.dtd">
<!-- Creator: CorelDRAW X7 -->
<svg xmlns="http://www.w3.org/2000/svg" xml:space="preserve" version="1.1" style="shape-rendering:geometricPrecision; text-rendering:geometricPrecision; image-rendering:optimizeQuality; fill-rule:evenodd; clip-rule:evenodd"
viewBox="0 0 1500 2000"
 xmlns:xlink="http://www.w3.org/1999/xlink">
 <defs>
  <style type="text/css">
   <![CDATA[
    .fil1 {fill:none}
    .fil0 {fill:black;fill-rule:nonzero}
   ]]>
  </style>
 </defs>
 <g id="Слой_x0020_1">
  <metadata id="CorelCorpID_0Corel-Layer"/>
  <g id="_862638674448">
   <path class="fil0" d="M1411 203c-231,510 -462,1020 -692,1529 -3,6 -6,10 -12,14 -5,4 -10,5 -16,6 -7,0 -12,-1 -17,-3 -6,-3 -10,-7 -14,-12 -106,-162 -212,-324 -318,-486 -88,-125 -175,-249 -263,-374 190,289 379,579 569,868 5,8 11,12 19,17 9,4 16,5 25,5 9,-1 16,-4 24,-9 7,-6 12,-11 16,-20 216,-476 431,-952 647,-1429 10,-35 21,-71 32,-106zm-36 -16c-231,510 -462,1019 -692,1529 0,-1 1,-2 2,-2 0,-1 2,-1 3,-1 1,-1 2,0 3,0 1,0 2,2 2,2 0,0 -224,-342 -318,-486 -77,-131 -155,-262 -232,-394 190,290 379,579 569,868 -3,-4 -7,-7 -11,-10 -5,-2 -9,-3 -15,-2 -5,0 -9,1 -14,5 -4,3 -7,6 -9,11 0,0 454,-1005 646,-1429 22,-30 44,-61 66,-91z"/>
  </g>
  <polyline class="fil1" points="111,856 690,1739 1389,193 "/>
 </g>
</svg>
